inDegrees=yes
name=ik_S47_A11_T02
DataType=double
version=3
OpenSimVersion=4.3-2021-08-27-4bc7ad9
endheader
time	pelvis_tilt	pelvis_list	pelvis_rotation	pelvis_tx	pelvis_ty	pelvis_tz	hip_flexion_r	hip_adduction_r	hip_rotation_r	knee_angle_r	knee_angle_r_beta	ankle_angle_r	subtalar_angle_r	mtp_angle_r	hip_flexion_l	hip_adduction_l	hip_rotation_l	knee_angle_l	knee_angle_l_beta	ankle_angle_l	subtalar_angle_l	mtp_angle_l	lumbar_extension	lumbar_bending	lumbar_rotation	arm_flex_r	arm_add_r	arm_rot_r	elbow_flex_r	pro_sup_r	wrist_flex_r	wrist_dev_r	arm_flex_l	arm_add_l	arm_rot_l	elbow_flex_l	pro_sup_l	wrist_flex_l	wrist_dev_l
0	0	0	0	0	0.9399999999999999	0	0	0	0	0	0	0	0	0	0	0	0	0	0	0	0	0	0	0	0	0	0	0	0	89.99999999963507	0	0	0	0	0	0	89.99999999869995	0	0
0.02	-0.506670397594584	0.1655143129939383	32.19446076961865	0	0.9399999999999999	0	1.890190501764963	-0.8934033783650706	-0.6355539041648411	2.932502685323341	0.05118182718246749	0	0	0	1.890190501764963	-0.8934033783650706	-0.6355539041648411	2.932502685323341	0.05118182718246749	0	0	0	0.04498484183538574	1.346744241440961	14.23837159297386	14.98536292361982	-7.364776056639949	-1.346455209936904	5.908806230867764	116.8778095340145	0	0	13.19945929239272	-3.805915646135559	-2.065771141709393	10.47416535906425	127.5919937884848	0	0
0.04	-0.5112234919926095	0.1625983711952854	32.41033029514972	0	0.9399999999999999	0	3.220766238292003	-1.509919752531633	-1.114980028653524	4.301117038695646	0.07506865383886738	0	0	0	3.220766238292003	-1.509919752531633	-1.114980028653524	4.301117038695646	0.07506865383886738	0	0	0	0.03093633205984696	1.317531955738068	14.04024338536176	15.02060893186625	-7.350234156032966	-1.365894728744819	6.013445558936862	117.050341487161	0	0	13.2063226670325	-3.840445318818698	-2.082201875478379	10.49048261317153	127.6183791997324	0	0
0.06	-0.5100348119126538	0.1868224697741077	32.62855243055043	0	0.9399999999999999	0	4.551661460898726	-2.094675427632774	-1.58772359418244	5.574606921588392	0.09729524528618279	0	0	0	4.551661460898726	-2.094675427632774	-1.58772359418244	5.574606921588392	0.09729524528618279	0	0	0	0.03958321916044136	1.308265897356007	13.84459922658422	14.98858878158386	-7.366738756684653	-1.327740195876827	6.047785108044199	117.1514586661052	0	0	13.18331017510039	-3.837340630933973	-2.069334491680243	10.472164185241	127.5822154707423	0	0
0.08	-0.4978930838351255	0.2035653907845066	32.92972327882434	0	0.9399999999999999	0	6.191918141115555	-2.779258306129567	-2.156277577153589	7.115579946805769	0.1241902982606436	0	0	0	6.191918141115555	-2.779258306129567	-2.156277577153589	7.115579946805769	0.1241902982606436	0	0	0	0.05267166431391599	1.294608913209804	13.58065102254633	14.93774888287705	-7.368832661740652	-1.374236997118335	6.253370560570978	117.2771734535272	0	0	13.0993641637175	-3.851908696098921	-1.995901956442369	10.63566971084249	127.4482519810213	0	0
0.1	-0.4890050405885239	0.2038320327984687	32.97633465839262	0	0.9399999999999999	0	6.219560362722488	-2.792909068449332	-2.165707363298054	7.151928811945417	0.1248247056366939	0	0	0	6.219560362722488	-2.792909068449332	-2.165707363298054	7.151928811945417	0.1248247056366939	0	0	0	0.06012199274332056	1.289740284500779	13.57480452073253	15.00094472658653	-7.38523603767152	-1.232198809771361	6.017628068931114	117.0988503565305	0	0	13.12052566945527	-3.843770838662355	-1.985311311299464	10.447580359422	127.5908890796242	0	0
0.12	-0.4861700874069464	0.2153269655580776	33.21895029967221	0	0.9399999999999999	0	7.519019786565382	-3.332593414652729	-2.606224185263289	8.442875560478344	0.1473559768665087	0	0	0	7.519019786565382	-3.332593414652729	-2.606224185263289	8.442875560478344	0.1473559768665087	0	0	0	0.05790431074018404	1.277954216055004	13.36534724963622	15.02827466667157	-7.401684585658738	-1.186742324970288	5.998145403445772	117.0060068360544	0	0	13.13011851433617	-3.872902883737716	-1.987529200225391	10.4631932685588	127.5514298248971	0	0
0.14	-0.4902033023999843	0.205986482972951	33.298450574407	0	0.9399999999999999	0	7.828791295842418	-3.452880546152264	-2.709495382229974	8.731658484349278	0.1523961897115927	0	0	0	7.828791295842418	-3.452880546152264	-2.709495382229974	8.731658484349278	0.1523961897115927	0	0	0	0.04724737654822338	1.267431402621408	13.32197561257475	15.05277286917828	-7.411291289178265	-1.146400285743181	6.135846213406398	116.9197805686395	0	0	13.16074695741498	-3.8983539757371	-1.972501327884014	10.63334898944493	127.4669899171488	0	0
0.16	-0.4779737173480418	0.227794731371321	33.50824164994011	0	0.9399999999999999	0	8.728266566511705	-3.785227669645541	-3.003287585405093	9.579748501432857	0.1671981528629961	0	0	0	8.728266566511705	-3.785227669645541	-3.003287585405093	9.579748501432857	0.1671981528629961	0	0	0	0.06836005016985189	1.262027388706501	13.16960337288927	15.04817059599123	-7.421119194602628	-1.172141185123082	6.012637174087279	116.9903445277487	0	0	13.15552166084238	-3.878234535561722	-1.941388000484126	10.47887981465941	127.537586538271	0	0
0.18	-0.4757682795483323	0.2344794832971661	33.71399329467911	0	0.9399999999999999	0	9.732218406099141	-4.165218015010744	-3.328823121885399	10.58664979178288	0.1847718956221833	0	0	0	9.732218406099141	-4.165218015010744	-3.328823121885399	10.58664979178288	0.1847718956221833	0	0	0	0.0632242383205221	1.249696625256845	13.01599223317095	15.03659839855277	-7.441462431331312	-1.144638152264635	6.183369494658806	117.0389950600105	0	0	13.15099215754736	-3.891524005873889	-1.884029415973565	10.63084788857683	127.4623721442732	0	0
0.2	-0.4825378061415849	0.2294105406975441	33.75037353425397	0	0.9399999999999999	0	9.750068830952532	-4.173456269764254	-3.33484034094344	10.60853044794601	0.1851537851147268	-1.814111849190261e-51	0	0	9.750068830952532	-4.173456269764254	-3.33484034094344	10.60853044794601	0.1851537851147268	-1.814111849190261e-51	0	0	0.05470257211966514	1.248989066408206	13.01099537475885	15.10582337646153	-7.419464708205597	-1.022469648109452	5.996851606606461	117.0018028449467	0	0	13.21990406882324	-3.88715293732951	-1.88710953559753	10.49140714155921	127.5414097344497	0	0
0.22	-0.4693756034818125	0.2441870583524621	33.93478049341623	0	0.9399999999999999	0	10.59112402714641	-4.4745420789028	-3.601555575466977	11.44009362228787	0.1996673004453278	0	0	0	10.59112402714641	-4.4745420789028	-3.601555575466977	11.44009362228787	0.1996673004453278	0	0	0	0.06558652189750314	1.241680222374411	12.87806681738993	15.07257199703631	-7.424752401830562	-1.010630956457396	5.990165109267653	116.9040563290815	0	0	13.18726383537694	-3.884681526333357	-1.826258051555227	10.53906841232317	127.5125101892467	0	0
0.24	-0.4741274223708315	0.2493442156251845	33.96345251446169	0	0.9399999999999999	0	10.79654714815827	-4.542617047458345	-3.665053610805301	11.63785301503573	0.2031188529755227	0	0	0	10.79654714815827	-4.542617047458345	-3.665053610805301	11.63785301503573	0.2031188529755227	0	0	0	0.06324389634066323	1.244831991072338	12.86686833567007	15.05762484042	-7.438478399905522	-1.000271980899494	6.088233149678263	116.84014849106	0	0	13.18480806235795	-3.890769945968283	-1.726924983001393	10.68977275040788	127.3570932177542	0	0
0.26	-0.4836525777648206	0.2391505347289123	34.01726102462631	0	0.9399999999999999	0	10.8452652264839	-4.557784492153616	-3.679983046922284	11.68151577343865	0.2038809118701565	0	0	0	10.8452652264839	-4.557784492153616	-3.679983046922284	11.68151577343865	0.2038809118701565	0	0	0	0.04910234690846105	1.241129663001295	12.87392362549283	15.07326015588903	-7.432041096789246	-1.017772148689785	6.006645727441056	116.955451291949	0	0	13.2398959908477	-3.850598223508275	-1.615238259515795	10.56555985763845	127.3560169442437	0	0
0.28	-0.4929402806392151	0.2326300217292182	34.0420941987565	0	0.9399999999999999	0	10.9057075479638	-4.578537893608473	-3.698875511476616	11.73980869025976	0.204898315199276	0	0	0	10.9057075479638	-4.578537893608473	-3.698875511476616	11.73980869025976	0.204898315199276	0	0	0	0.03718289035840088	1.240337494490091	12.86818424989669	15.09423628931063	-7.429682423694445	-1.0315091013206	5.992859138987059	117.0723339614533	0	0	13.25884228071327	-3.842909756045092	-1.570169086154562	10.5516113309268	127.318403375913	0	0
